<svg aria-roledescription="flowchart-v2" role="graphics-document document" viewBox="-8 -8 670.029296875 740.375" style="max-width: 670.029px; background-color: white;" xmlns:xlink="http://www.w3.org/1999/xlink" xmlns="http://www.w3.org/2000/svg" width="100%" id="my-svg"><style>#my-svg{font-family:"trebuchet ms",verdana,arial,sans-serif;font-size:16px;fill:#333;}#my-svg .error-icon{fill:#552222;}#my-svg .error-text{fill:#552222;stroke:#552222;}#my-svg .edge-thickness-normal{stroke-width:2px;}#my-svg .edge-thickness-thick{stroke-width:3.5px;}#my-svg .edge-pattern-solid{stroke-dasharray:0;}#my-svg .edge-pattern-dashed{stroke-dasharray:3;}#my-svg .edge-pattern-dotted{stroke-dasharray:2;}#my-svg .marker{fill:#333333;stroke:#333333;}#my-svg .marker.cross{stroke:#333333;}#my-svg svg{font-family:"trebuchet ms",verdana,arial,sans-serif;font-size:16px;}#my-svg .label{font-family:"trebuchet ms",verdana,arial,sans-serif;color:#333;}#my-svg .cluster-label text{fill:#333;}#my-svg .cluster-label span,#my-svg p{color:#333;}#my-svg .label text,#my-svg span,#my-svg p{fill:#333;color:#333;}#my-svg .node rect,#my-svg .node circle,#my-svg .node ellipse,#my-svg .node polygon,#my-svg .node path{fill:#ECECFF;stroke:#9370DB;stroke-width:1px;}#my-svg .flowchart-label text{text-anchor:middle;}#my-svg .node .label{text-align:center;}#my-svg .node.clickable{cursor:pointer;}#my-svg .arrowheadPath{fill:#333333;}#my-svg .edgePath .path{stroke:#333333;stroke-width:2.0px;}#my-svg .flowchart-link{stroke:#333333;fill:none;}#my-svg .edgeLabel{background-color:#e8e8e8;text-align:center;}#my-svg .edgeLabel rect{opacity:0.5;background-color:#e8e8e8;fill:#e8e8e8;}#my-svg .labelBkg{background-color:rgba(232, 232, 232, 0.5);}#my-svg .cluster rect{fill:#ffffde;stroke:#aaaa33;stroke-width:1px;}#my-svg .cluster text{fill:#333;}#my-svg .cluster span,#my-svg p{color:#333;}#my-svg div.mermaidTooltip{position:absolute;text-align:center;max-width:200px;padding:2px;font-family:"trebuchet ms",verdana,arial,sans-serif;font-size:12px;background:hsl(80, 100%, 96.2745098039%);border:1px solid #aaaa33;border-radius:2px;pointer-events:none;z-index:100;}#my-svg .flowchartTitleText{text-anchor:middle;font-size:18px;fill:#333;}#my-svg :root{--mermaid-font-family:"trebuchet ms",verdana,arial,sans-serif;}</style><g><marker orient="auto" markerHeight="12" markerWidth="12" markerUnits="userSpaceOnUse" refY="5" refX="6" viewBox="0 0 10 10" class="marker flowchart" id="my-svg_flowchart-pointEnd"><path style="stroke-width: 1; stroke-dasharray: 1, 0;" class="arrowMarkerPath" d="M 0 0 L 10 5 L 0 10 z"/></marker><marker orient="auto" markerHeight="12" markerWidth="12" markerUnits="userSpaceOnUse" refY="5" refX="4.5" viewBox="0 0 10 10" class="marker flowchart" id="my-svg_flowchart-pointStart"><path style="stroke-width: 1; stroke-dasharray: 1, 0;" class="arrowMarkerPath" d="M 0 5 L 10 10 L 10 0 z"/></marker><marker orient="auto" markerHeight="11" markerWidth="11" markerUnits="userSpaceOnUse" refY="5" refX="11" viewBox="0 0 10 10" class="marker flowchart" id="my-svg_flowchart-circleEnd"><circle style="stroke-width: 1; stroke-dasharray: 1, 0;" class="arrowMarkerPath" r="5" cy="5" cx="5"/></marker><marker orient="auto" markerHeight="11" markerWidth="11" markerUnits="userSpaceOnUse" refY="5" refX="-1" viewBox="0 0 10 10" class="marker flowchart" id="my-svg_flowchart-circleStart"><circle style="stroke-width: 1; stroke-dasharray: 1, 0;" class="arrowMarkerPath" r="5" cy="5" cx="5"/></marker><marker orient="auto" markerHeight="11" markerWidth="11" markerUnits="userSpaceOnUse" refY="5.2" refX="12" viewBox="0 0 11 11" class="marker cross flowchart" id="my-svg_flowchart-crossEnd"><path style="stroke-width: 2; stroke-dasharray: 1, 0;" class="arrowMarkerPath" d="M 1,1 l 9,9 M 10,1 l -9,9"/></marker><marker orient="auto" markerHeight="11" markerWidth="11" markerUnits="userSpaceOnUse" refY="5.2" refX="-1" viewBox="0 0 11 11" class="marker cross flowchart" id="my-svg_flowchart-crossStart"><path style="stroke-width: 2; stroke-dasharray: 1, 0;" class="arrowMarkerPath" d="M 1,1 l 9,9 M 10,1 l -9,9"/></marker><g class="root"><g class="clusters"><g id="namecheap" class="cluster default flowchart-label"><rect height="107" width="178.953125" y="82" x="469.537109375" ry="0" rx="0" style=""/><g transform="translate(559.013671875, 82)" class="cluster-label"><text style=""><tspan class="row" x="0" dy="1em" xml:space="preserve">namecheap</tspan></text></g></g><g id="upload" class="cluster default flowchart-label"><rect height="171.375" width="190.03125" y="321" x="463.998046875" ry="0" rx="0" style=""/><g transform="translate(559.013671875, 321)" class="cluster-label"><text style=""><tspan class="row" x="0" dy="1em" xml:space="preserve">upload</tspan></text></g></g><g id="AWS" class="cluster default flowchart-label"><rect height="642.375" width="443.998046875" y="82" x="0" ry="0" rx="0" style=""/><g transform="translate(221.9990234375, 82)" class="cluster-label"><text style=""><tspan class="row" x="0" dy="1em" xml:space="preserve">AWS</tspan></text></g></g><g id="global" class="cluster default flowchart-label"><rect height="592.375" width="403.998046875" y="107" x="20" ry="0" rx="0" style=""/><g transform="translate(221.9990234375, 107)" class="cluster-label"><text style=""><tspan class="row" x="0" dy="1em" xml:space="preserve">global</tspan></text></g></g><g id="eu-west-2" class="cluster default flowchart-label"><rect height="132" width="237.640625" y="542.375" x="166.357421875" ry="0" rx="0" style=""/><g transform="translate(285.177734375, 542.375)" class="cluster-label"><text style=""><tspan class="row" x="0" dy="1em" xml:space="preserve">eu-west-2</tspan></text></g></g><g id="acl-public-read" class="cluster default flowchart-label"><rect height="82" width="197.640625" y="567.375" x="186.357421875" ry="0" rx="0" style=""/><g transform="translate(285.177734375, 567.375)" class="cluster-label"><text style=""><tspan class="row" x="0" dy="1em" xml:space="preserve">acl-public-read</tspan></text></g></g></g><g class="edgePaths"><path marker-end="url(#my-svg_flowchart-pointEnd)" style="fill:none;" class="edge-thickness-normal edge-pattern-solid flowchart-link LS-Cert LE-R53" id="L-Cert-R53-0" d="M106.3359375,164L106.3359375,168.16666666666666C106.3359375,172.33333333333334,106.3359375,180.66666666666666,106.3359375,189C106.3359375,197.33333333333334,106.3359375,205.66666666666666,111.94973602073647,213.515524888992C117.56353454147292,221.36438311131732,128.79113158294584,228.72876622263462,134.40493010368232,232.4109577782933L140.01872862441877,236.09314933395197"/><path marker-end="url(#my-svg_flowchart-pointEnd)" marker-start="url(#my-svg_flowchart-pointStart)" style="fill:none;" class="edge-thickness-normal edge-pattern-solid flowchart-link LS-R53 LE-DNS" id="L-R53-DNS-0" d="M168.84375,276.3L168.84375,279.5833333333333C168.84375,282.8666666666667,168.84375,289.43333333333334,168.84375,296.8833333333333C168.84375,304.3333333333333,168.84375,312.6666666666667,168.90976640047458,320.20016975753657C168.97578280094913,327.73367284840646,169.1078156018983,334.4673456968129,169.17383200237285,337.8341821210161L169.23984840284743,341.20101854521937"/><path marker-end="url(#my-svg_flowchart-pointEnd)" marker-start="url(#my-svg_flowchart-pointStart)" style="fill:none;" class="edge-thickness-normal edge-pattern-solid flowchart-link LS-DNS LE-Cache" id="L-DNS-Cache-0" d="M139.11329306947738,445.10029378615707L132.70801766206446,452.9794114884642C126.30274225465159,460.8585291907714,113.49219143982579,476.61676459538575,107.08691603241289,488.66254896435953C100.681640625,500.7083333333333,100.681640625,509.0416666666667,100.681640625,517.375C100.681640625,525.7083333333334,100.681640625,534.0416666666666,100.681640625,542.375C100.681640625,550.7083333333334,100.681640625,559.0416666666666,100.681640625,566.4916666666667C100.681640625,573.9416666666667,100.681640625,580.5083333333333,100.681640625,583.7916666666666L100.681640625,587.075"/><path marker-end="url(#my-svg_flowchart-pointEnd)" marker-start="url(#my-svg_flowchart-pointStart)" style="fill:none;" class="edge-thickness-normal edge-pattern-solid flowchart-link LS-DNS LE-S3" id="L-DNS-S3-0" d="M203.6794890226802,441.0343971230358L212.36083720640013,449.5911642691965C221.04218539012012,458.14793141535716,238.40488175756005,475.2614657076786,247.08622994128004,487.98489952050596C255.767578125,500.7083333333333,255.767578125,509.0416666666667,255.767578125,517.375C255.767578125,525.7083333333334,255.767578125,534.0416666666666,255.767578125,542.375C255.767578125,550.7083333333334,255.767578125,559.0416666666666,258.24154655707565,566.6572339393987C260.7155149891513,574.2728012121307,265.6634518533026,581.1706024242613,268.13742028537825,584.6195030303267L270.6113887174539,588.0684036363921"/><path marker-end="url(#my-svg_flowchart-pointEnd)" style="fill:none;" class="edge-thickness-normal edge-pattern-solid flowchart-link LS-Actions LE-S3" id="L-Actions-S3-0" d="M559.013671875,422.6875L559.013671875,434.3020833333333C559.013671875,445.9166666666667,559.013671875,469.1458333333333,519.9427083333334,484.9270833333333C480.8717447916667,500.7083333333333,402.7298177083333,509.0416666666667,363.6588541666667,517.375C324.587890625,525.7083333333334,324.587890625,534.0416666666666,324.587890625,542.375C324.587890625,550.7083333333334,324.587890625,559.0416666666666,321.1949351902354,566.7381638659222C317.8019797554709,574.4346610651777,311.01606888594176,581.4943221303554,307.6231134511772,585.0241526629442L304.23015801641264,588.5539831955331"/><path marker-end="url(#my-svg_flowchart-pointEnd)" marker-start="url(#my-svg_flowchart-pointStart)" style="fill:none;" class="edge-thickness-normal edge-pattern-solid flowchart-link LS-Client LE-Site" id="L-Client-Site-0" d="M559.013671875,37.3L559.013671875,40.583333333333336C559.013671875,43.86666666666667,559.013671875,50.43333333333334,559.013671875,57.88333333333333C559.013671875,65.33333333333333,559.013671875,73.66666666666667,559.013671875,82C559.013671875,90.33333333333333,559.013671875,98.66666666666667,559.013671875,106.11666666666667C559.013671875,113.56666666666666,559.013671875,120.13333333333333,559.013671875,123.41666666666667L559.013671875,126.7"/><path marker-end="url(#my-svg_flowchart-pointEnd)" style="fill:none;" class="edge-thickness-normal edge-pattern-solid flowchart-link LS-Site LE-R53" id="L-Site-R53-0" d="M549.3597084603658,164L546.8456554878048,168.16666666666666C544.3316025152438,172.33333333333334,539.3034965701219,180.66666666666666,475.88417016006093,189C412.46484375,197.33333333333334,290.654296875,205.66666666666666,229.7490234375,213.11666666666667C168.84375,220.5666666666667,168.84375,227.13333333333333,168.84375,230.41666666666666L168.84375,233.7"/><path marker-end="url(#my-svg_flowchart-pointEnd)" style="fill:none;" class="edge-thickness-normal edge-pattern-solid flowchart-link LS-R53 LE-Site" id="L-R53-Site-0" d="M208.86328125,244.50451632247666L228.2490234375,239.42043026873057C247.634765625,234.33634421498445,286.40625,224.1681721074922,350.5543619791667,214.91741938707946C414.7024739583333,205.66666666666666,504.2272135416667,197.33333333333334,546.0302927841731,189.67395176685943C587.8333720266795,182.01457020038552,581.9147909283591,175.02914040077107,578.9555003791988,171.5364255009638L575.9962098300387,168.04371060115656"/></g><g class="edgeLabels"><g class="edgeLabel"><g transform="translate(0, 0)" class="label"><rect height="0" width="0" ry="0" rx="0"/><text style=""><tspan class="row" x="0" dy="1em" xml:space="preserve"/></text></g></g><g class="edgeLabel"><g transform="translate(0, 0)" class="label"><rect height="0" width="0" ry="0" rx="0"/><text style=""><tspan class="row" x="0" dy="1em" xml:space="preserve"/></text></g></g><g class="edgeLabel"><g transform="translate(0, 0)" class="label"><rect height="0" width="0" ry="0" rx="0"/><text style=""><tspan class="row" x="0" dy="1em" xml:space="preserve"/></text></g></g><g class="edgeLabel"><g transform="translate(0, 0)" class="label"><rect height="0" width="0" ry="0" rx="0"/><text style=""><tspan class="row" x="0" dy="1em" xml:space="preserve"/></text></g></g><g class="edgeLabel"><g transform="translate(0, 0)" class="label"><rect height="0" width="0" ry="0" rx="0"/><text style=""><tspan class="row" x="0" dy="1em" xml:space="preserve"/></text></g></g><g class="edgeLabel"><g transform="translate(0, 0)" class="label"><rect height="0" width="0" ry="0" rx="0"/><text style=""><tspan class="row" x="0" dy="1em" xml:space="preserve"/></text></g></g><g class="edgeLabel"><g transform="translate(0, 0)" class="label"><rect height="0" width="0" ry="0" rx="0"/><text style=""><tspan class="row" x="0" dy="1em" xml:space="preserve"/></text></g></g><g class="edgeLabel"><g transform="translate(0, 0)" class="label"><rect height="0" width="0" ry="0" rx="0"/><text style=""><tspan class="row" x="0" dy="1em" xml:space="preserve"/></text></g></g></g><g class="nodes"><g transform="translate(559.013671875, 148)" id="flowchart-Site-16" class="node default default flowchart-label"><rect height="32" width="108.953125" y="-16" x="-54.4765625" ry="0" rx="0" style="" class="basic label-container"/><g transform="translate(0, -8.5)" style="" class="label"><rect/><text style=""><tspan class="row" x="0" dy="1em" xml:space="preserve">SHerlihy.com</tspan></text></g></g><g transform="translate(559.013671875, 406.6875)" id="flowchart-Actions-12" class="node default default flowchart-label"><rect height="32" width="120.03125" y="-16" x="-60.015625" ry="0" rx="0" style="" class="basic label-container"/><g transform="translate(0, -8.5)" style="" class="label"><rect/><text style=""><tspan class="row" x="0" dy="1em" xml:space="preserve">CI/CD Pipeline</tspan></text></g></g><g transform="translate(168.84375, 406.6875)" id="flowchart-DNS-0" class="node default default flowchart-label"><polygon style="" transform="translate(-60.6875,60.6875)" class="label-container" points="60.6875,0 121.375,-60.6875 60.6875,-121.375 0,-60.6875"/><g transform="translate(0, -8.5)" style="" class="label"><rect/><text style=""><tspan class="row" x="0" dy="1em" xml:space="preserve">Cloudfront</tspan></text></g></g><g transform="translate(168.84375, 255)" id="flowchart-R53-1" class="node default default flowchart-label"><rect height="32" width="80.0390625" y="-16" x="-40.01953125" ry="0" rx="0" style="" class="basic label-container"/><g transform="translate(0, -8.5)" style="" class="label"><rect/><text style=""><tspan class="row" x="0" dy="1em" xml:space="preserve">Route 53</tspan></text></g></g><g transform="translate(106.3359375, 148)" id="flowchart-Cert-2" class="node default default flowchart-label"><rect height="32" width="102.671875" y="-16" x="-51.3359375" ry="0" rx="0" style="" class="basic label-container"/><g transform="translate(0, -8.5)" style="" class="label"><rect/><text style=""><tspan class="row" x="0" dy="1em" xml:space="preserve">HTTPS Cert</tspan></text></g></g><g transform="translate(100.681640625, 608.375)" id="flowchart-Cache-8" class="node default default flowchart-label"><rect height="32" width="61.3515625" y="-16" x="-30.67578125" ry="0" rx="0" style="" class="basic label-container"/><g transform="translate(0, -8.5)" style="" class="label"><rect/><text style=""><tspan class="row" x="0" dy="1em" xml:space="preserve">Cache</tspan></text></g></g><g transform="translate(285.177734375, 608.375)" id="flowchart-S3-10" class="node default default flowchart-label"><rect height="32" width="127.640625" y="-16" x="-63.8203125" ry="0" rx="0" style="" class="basic label-container"/><g transform="translate(0, -8.5)" style="" class="label"><rect/><text style=""><tspan class="row" x="0" dy="1em" xml:space="preserve">S3 sherlihy.com</tspan></text></g></g><g transform="translate(559.013671875, 16)" id="flowchart-Client-15" class="node default default flowchart-label"><rect height="32" width="56.4609375" y="-16" x="-28.23046875" ry="0" rx="0" style="" class="basic label-container"/><g transform="translate(0, -8.5)" style="" class="label"><rect/><text style=""><tspan class="row" x="0" dy="1em" xml:space="preserve">Client</tspan></text></g></g></g></g></g></svg>