<svg aria-roledescription="flowchart-v2" role="graphics-document document" viewBox="-8 -8 868.982421875 633.375" style="max-width: 868.982px; background-color: white;" xmlns:xlink="http://www.w3.org/1999/xlink" xmlns="http://www.w3.org/2000/svg" width="100%" id="my-svg"><style>#my-svg{font-family:"trebuchet ms",verdana,arial,sans-serif;font-size:16px;fill:#333;}#my-svg .error-icon{fill:#552222;}#my-svg .error-text{fill:#552222;stroke:#552222;}#my-svg .edge-thickness-normal{stroke-width:2px;}#my-svg .edge-thickness-thick{stroke-width:3.5px;}#my-svg .edge-pattern-solid{stroke-dasharray:0;}#my-svg .edge-pattern-dashed{stroke-dasharray:3;}#my-svg .edge-pattern-dotted{stroke-dasharray:2;}#my-svg .marker{fill:#333333;stroke:#333333;}#my-svg .marker.cross{stroke:#333333;}#my-svg svg{font-family:"trebuchet ms",verdana,arial,sans-serif;font-size:16px;}#my-svg .label{font-family:"trebuchet ms",verdana,arial,sans-serif;color:#333;}#my-svg .cluster-label text{fill:#333;}#my-svg .cluster-label span,#my-svg p{color:#333;}#my-svg .label text,#my-svg span,#my-svg p{fill:#333;color:#333;}#my-svg .node rect,#my-svg .node circle,#my-svg .node ellipse,#my-svg .node polygon,#my-svg .node path{fill:#ECECFF;stroke:#9370DB;stroke-width:1px;}#my-svg .flowchart-label text{text-anchor:middle;}#my-svg .node .label{text-align:center;}#my-svg .node.clickable{cursor:pointer;}#my-svg .arrowheadPath{fill:#333333;}#my-svg .edgePath .path{stroke:#333333;stroke-width:2.0px;}#my-svg .flowchart-link{stroke:#333333;fill:none;}#my-svg .edgeLabel{background-color:#e8e8e8;text-align:center;}#my-svg .edgeLabel rect{opacity:0.5;background-color:#e8e8e8;fill:#e8e8e8;}#my-svg .labelBkg{background-color:rgba(232, 232, 232, 0.5);}#my-svg .cluster rect{fill:#ffffde;stroke:#aaaa33;stroke-width:1px;}#my-svg .cluster text{fill:#333;}#my-svg .cluster span,#my-svg p{color:#333;}#my-svg div.mermaidTooltip{position:absolute;text-align:center;max-width:200px;padding:2px;font-family:"trebuchet ms",verdana,arial,sans-serif;font-size:12px;background:hsl(80, 100%, 96.2745098039%);border:1px solid #aaaa33;border-radius:2px;pointer-events:none;z-index:100;}#my-svg .flowchartTitleText{text-anchor:middle;font-size:18px;fill:#333;}#my-svg :root{--mermaid-font-family:"trebuchet ms",verdana,arial,sans-serif;}</style><g><marker orient="auto" markerHeight="12" markerWidth="12" markerUnits="userSpaceOnUse" refY="5" refX="6" viewBox="0 0 10 10" class="marker flowchart" id="my-svg_flowchart-pointEnd"><path style="stroke-width: 1; stroke-dasharray: 1, 0;" class="arrowMarkerPath" d="M 0 0 L 10 5 L 0 10 z"/></marker><marker orient="auto" markerHeight="12" markerWidth="12" markerUnits="userSpaceOnUse" refY="5" refX="4.5" viewBox="0 0 10 10" class="marker flowchart" id="my-svg_flowchart-pointStart"><path style="stroke-width: 1; stroke-dasharray: 1, 0;" class="arrowMarkerPath" d="M 0 5 L 10 10 L 10 0 z"/></marker><marker orient="auto" markerHeight="11" markerWidth="11" markerUnits="userSpaceOnUse" refY="5" refX="11" viewBox="0 0 10 10" class="marker flowchart" id="my-svg_flowchart-circleEnd"><circle style="stroke-width: 1; stroke-dasharray: 1, 0;" class="arrowMarkerPath" r="5" cy="5" cx="5"/></marker><marker orient="auto" markerHeight="11" markerWidth="11" markerUnits="userSpaceOnUse" refY="5" refX="-1" viewBox="0 0 10 10" class="marker flowchart" id="my-svg_flowchart-circleStart"><circle style="stroke-width: 1; stroke-dasharray: 1, 0;" class="arrowMarkerPath" r="5" cy="5" cx="5"/></marker><marker orient="auto" markerHeight="11" markerWidth="11" markerUnits="userSpaceOnUse" refY="5.2" refX="12" viewBox="0 0 11 11" class="marker cross flowchart" id="my-svg_flowchart-crossEnd"><path style="stroke-width: 2; stroke-dasharray: 1, 0;" class="arrowMarkerPath" d="M 1,1 l 9,9 M 10,1 l -9,9"/></marker><marker orient="auto" markerHeight="11" markerWidth="11" markerUnits="userSpaceOnUse" refY="5.2" refX="-1" viewBox="0 0 11 11" class="marker cross flowchart" id="my-svg_flowchart-crossStart"><path style="stroke-width: 2; stroke-dasharray: 1, 0;" class="arrowMarkerPath" d="M 1,1 l 9,9 M 10,1 l -9,9"/></marker><g class="root"><g class="clusters"><g id="upload" class="cluster default flowchart-label"><rect height="171.375" width="190.03125" y="214" x="662.951171875" ry="0" rx="0" style=""/><g transform="translate(757.966796875, 214)" class="cluster-label"><text style=""><tspan class="row" x="0" dy="1em" xml:space="preserve">upload</tspan></text></g></g><g id="AWS" class="cluster default flowchart-label"><rect height="617.375" width="443.998046875" y="0" x="0" ry="0" rx="0" style=""/><g transform="translate(221.9990234375, 0)" class="cluster-label"><text style=""><tspan class="row" x="0" dy="1em" xml:space="preserve">AWS</tspan></text></g></g><g id="namecheap" class="cluster default flowchart-label"><rect height="171.375" width="178.953125" y="214" x="463.998046875" ry="0" rx="0" style=""/><g transform="translate(553.474609375, 214)" class="cluster-label"><text style=""><tspan class="row" x="0" dy="1em" xml:space="preserve">namecheap</tspan></text></g></g><g id="global" class="cluster default flowchart-label"><rect height="567.375" width="403.998046875" y="25" x="20" ry="0" rx="0" style=""/><g transform="translate(221.9990234375, 25)" class="cluster-label"><text style=""><tspan class="row" x="0" dy="1em" xml:space="preserve">global</tspan></text></g></g><g id="eu-west-2" class="cluster default flowchart-label"><rect height="132" width="237.640625" y="435.375" x="166.357421875" ry="0" rx="0" style=""/><g transform="translate(285.177734375, 435.375)" class="cluster-label"><text style=""><tspan class="row" x="0" dy="1em" xml:space="preserve">eu-west-2</tspan></text></g></g><g id="acl-public-read" class="cluster default flowchart-label"><rect height="82" width="197.640625" y="460.375" x="186.357421875" ry="0" rx="0" style=""/><g transform="translate(285.177734375, 460.375)" class="cluster-label"><text style=""><tspan class="row" x="0" dy="1em" xml:space="preserve">acl-public-read</tspan></text></g></g></g><g class="edgePaths"><path marker-end="url(#my-svg_flowchart-pointEnd)" marker-start="url(#my-svg_flowchart-pointStart)" style="fill:none;" class="edge-thickness-normal edge-pattern-solid flowchart-link LS-Client LE-Site" id="L-Client-Site-0" d="M553.474609375,169.3L553.474609375,172.58333333333334C553.474609375,175.86666666666667,553.474609375,182.4333333333333,553.474609375,189.88333333333333C553.474609375,197.33333333333334,553.474609375,205.66666666666666,553.474609375,220.56458333333333C553.474609375,235.4625,553.474609375,256.925,553.474609375,267.65625L553.474609375,278.3875"/><path marker-end="url(#my-svg_flowchart-pointEnd)" style="fill:none;" class="edge-thickness-normal edge-pattern-solid flowchart-link LS-Site LE-R53" id="L-Site-R53-0" d="M512.7131214100109,283.6875L483.1238902375091,272.0729166666667C453.53465906500725,260.4583333333333,394.35619672000365,237.22916666666666,364.7669655475018,221.44791666666666C335.177734375,205.66666666666666,335.177734375,197.33333333333334,326.45198161080776,189.35370215812313C317.72622884661547,181.3740709829129,300.27472331823094,173.74814196582577,291.5489705540387,169.9351774572822L282.8232177898464,166.12221294873865"/><path marker-end="url(#my-svg_flowchart-pointEnd)" style="fill:none;" class="edge-thickness-normal edge-pattern-solid flowchart-link LS-R53 LE-Site" id="L-R53-Site-0" d="M261.1206173780488,164L266.2688087525407,168.16666666666666C271.4170001270325,172.33333333333334,281.7133828760163,180.66666666666666,286.8615742505081,189C292.009765625,197.33333333333334,292.009765625,205.66666666666666,326.61082878280973,221.17282569801122C361.2118919406195,236.6789847293558,430.4140182562391,259.3579694587116,465.01508141404884,270.69746182338946L499.6161445718586,282.0369541880674"/><path marker-end="url(#my-svg_flowchart-pointEnd)" style="fill:none;" class="edge-thickness-normal edge-pattern-solid flowchart-link LS-Cert LE-R53" id="L-Cert-R53-0" d="M241.3515625,82L241.3515625,86.16666666666667C241.3515625,90.33333333333333,241.3515625,98.66666666666667,241.3515625,106.11666666666667C241.3515625,113.56666666666666,241.3515625,120.13333333333333,241.3515625,123.41666666666667L241.3515625,126.7"/><path marker-end="url(#my-svg_flowchart-pointEnd)" marker-start="url(#my-svg_flowchart-pointStart)" style="fill:none;" class="edge-thickness-normal edge-pattern-solid flowchart-link LS-R53 LE-DNS" id="L-R53-DNS-0" d="M206.28890888879405,166.47014365386286L199.16067928232837,170.22511971155237C192.0324496758627,173.9800957692419,177.77599046293133,181.49004788462094,170.64776085646568,189.41169060897712C163.51953125,197.33333333333334,163.51953125,205.66666666666666,163.58554765047458,213.20016975753654C163.65156405094913,220.73367284840643,163.7835968518983,227.4673456968129,163.84961325237285,230.83418212101614L163.91562965284743,234.20101854521937"/><path marker-end="url(#my-svg_flowchart-pointEnd)" marker-start="url(#my-svg_flowchart-pointStart)" style="fill:none;" class="edge-thickness-normal edge-pattern-solid flowchart-link LS-DNS LE-Cache" id="L-DNS-Cache-0" d="M135.16230215227012,339.43818445820915L129.4155252310584,347.094320381841C123.66874830984675,354.7504563054728,112.17519446742337,370.0627281527364,106.42841754621168,381.8855307430349C100.681640625,393.7083333333333,100.681640625,402.0416666666667,100.681640625,410.375C100.681640625,418.7083333333333,100.681640625,427.0416666666667,100.681640625,435.375C100.681640625,443.7083333333333,100.681640625,452.0416666666667,100.681640625,459.4916666666666C100.681640625,466.94166666666666,100.681640625,473.5083333333334,100.681640625,476.7916666666667L100.681640625,480.075"/><path marker-end="url(#my-svg_flowchart-pointEnd)" marker-start="url(#my-svg_flowchart-pointStart)" style="fill:none;" class="edge-thickness-normal edge-pattern-solid flowchart-link LS-DNS LE-S3" id="L-DNS-S3-0" d="M199.36641353511575,333.01827227236237L208.7666076334298,341.74439356030194C218.16680173174382,350.4705148482415,236.9671899283719,367.9227574241208,246.36738402668595,380.815545378727C255.767578125,393.7083333333333,255.767578125,402.0416666666667,255.767578125,410.375C255.767578125,418.7083333333333,255.767578125,427.0416666666667,255.767578125,435.375C255.767578125,443.7083333333333,255.767578125,452.0416666666667,258.24154655707565,459.6572339393986C260.7155149891513,467.2728012121307,265.6634518533026,474.1706024242614,268.13742028537825,477.6195030303267L270.6113887174539,481.0684036363921"/><path marker-end="url(#my-svg_flowchart-pointEnd)" style="fill:none;" class="edge-thickness-normal edge-pattern-solid flowchart-link LS-Actions LE-S3" id="L-Actions-S3-0" d="M757.966796875,315.6875L757.966796875,327.3020833333333C757.966796875,338.9166666666667,757.966796875,362.1458333333333,685.7369791666666,377.9270833333333C613.5071614583334,393.7083333333333,469.0475260416667,402.0416666666667,396.8177083333333,410.375C324.587890625,418.7083333333333,324.587890625,427.0416666666667,324.587890625,435.375C324.587890625,443.7083333333333,324.587890625,452.0416666666667,321.1949351902354,459.73816386592216C317.8019797554709,467.43466106517764,311.01606888594176,474.49432213035533,307.6231134511772,478.0241526629441L304.23015801641264,481.553983195533"/></g><g class="edgeLabels"><g class="edgeLabel"><g transform="translate(0, 0)" class="label"><rect height="0" width="0" ry="0" rx="0"/><text style=""><tspan class="row" x="0" dy="1em" xml:space="preserve"/></text></g></g><g class="edgeLabel"><g transform="translate(0, 0)" class="label"><rect height="0" width="0" ry="0" rx="0"/><text style=""><tspan class="row" x="0" dy="1em" xml:space="preserve"/></text></g></g><g class="edgeLabel"><g transform="translate(0, 0)" class="label"><rect height="0" width="0" ry="0" rx="0"/><text style=""><tspan class="row" x="0" dy="1em" xml:space="preserve"/></text></g></g><g class="edgeLabel"><g transform="translate(0, 0)" class="label"><rect height="0" width="0" ry="0" rx="0"/><text style=""><tspan class="row" x="0" dy="1em" xml:space="preserve"/></text></g></g><g class="edgeLabel"><g transform="translate(0, 0)" class="label"><rect height="0" width="0" ry="0" rx="0"/><text style=""><tspan class="row" x="0" dy="1em" xml:space="preserve"/></text></g></g><g class="edgeLabel"><g transform="translate(0, 0)" class="label"><rect height="0" width="0" ry="0" rx="0"/><text style=""><tspan class="row" x="0" dy="1em" xml:space="preserve"/></text></g></g><g class="edgeLabel"><g transform="translate(0, 0)" class="label"><rect height="0" width="0" ry="0" rx="0"/><text style=""><tspan class="row" x="0" dy="1em" xml:space="preserve"/></text></g></g><g class="edgeLabel"><g transform="translate(0, 0)" class="label"><rect height="0" width="0" ry="0" rx="0"/><text style=""><tspan class="row" x="0" dy="1em" xml:space="preserve"/></text></g></g></g><g class="nodes"><g transform="translate(757.966796875, 299.6875)" id="flowchart-Actions-19" class="node default default flowchart-label"><rect height="32" width="120.03125" y="-16" x="-60.015625" ry="0" rx="0" style="" class="basic label-container"/><g transform="translate(0, -8.5)" style="" class="label"><rect/><text style=""><tspan class="row" x="0" dy="1em" xml:space="preserve">CI/CD Pipeline</tspan></text></g></g><g transform="translate(163.51953125, 299.6875)" id="flowchart-DNS-7" class="node default default flowchart-label"><polygon style="" transform="translate(-60.6875,60.6875)" class="label-container" points="60.6875,0 121.375,-60.6875 60.6875,-121.375 0,-60.6875"/><g transform="translate(0, -8.5)" style="" class="label"><rect/><text style=""><tspan class="row" x="0" dy="1em" xml:space="preserve">Cloudfront</tspan></text></g></g><g transform="translate(241.3515625, 148)" id="flowchart-R53-4" class="node default default flowchart-label"><rect height="32" width="80.0390625" y="-16" x="-40.01953125" ry="0" rx="0" style="" class="basic label-container"/><g transform="translate(0, -8.5)" style="" class="label"><rect/><text style=""><tspan class="row" x="0" dy="1em" xml:space="preserve">Route 53</tspan></text></g></g><g transform="translate(241.3515625, 66)" id="flowchart-Cert-9" class="node default default flowchart-label"><rect height="32" width="102.671875" y="-16" x="-51.3359375" ry="0" rx="0" style="" class="basic label-container"/><g transform="translate(0, -8.5)" style="" class="label"><rect/><text style=""><tspan class="row" x="0" dy="1em" xml:space="preserve">HTTPS Cert</tspan></text></g></g><g transform="translate(100.681640625, 501.375)" id="flowchart-Cache-15" class="node default default flowchart-label"><rect height="32" width="61.3515625" y="-16" x="-30.67578125" ry="0" rx="0" style="" class="basic label-container"/><g transform="translate(0, -8.5)" style="" class="label"><rect/><text style=""><tspan class="row" x="0" dy="1em" xml:space="preserve">Cache</tspan></text></g></g><g transform="translate(285.177734375, 501.375)" id="flowchart-S3-17" class="node default default flowchart-label"><rect height="32" width="127.640625" y="-16" x="-63.8203125" ry="0" rx="0" style="" class="basic label-container"/><g transform="translate(0, -8.5)" style="" class="label"><rect/><text style=""><tspan class="row" x="0" dy="1em" xml:space="preserve">S3 sherlihy.com</tspan></text></g></g><g transform="translate(553.474609375, 299.6875)" id="flowchart-Site-1" class="node default default flowchart-label"><rect height="32" width="108.953125" y="-16" x="-54.4765625" ry="0" rx="0" style="" class="basic label-container"/><g transform="translate(0, -8.5)" style="" class="label"><rect/><text style=""><tspan class="row" x="0" dy="1em" xml:space="preserve">SHerlihy.com</tspan></text></g></g><g transform="translate(553.474609375, 148)" id="flowchart-Client-0" class="node default default flowchart-label"><rect height="32" width="56.4609375" y="-16" x="-28.23046875" ry="0" rx="0" style="" class="basic label-container"/><g transform="translate(0, -8.5)" style="" class="label"><rect/><text style=""><tspan class="row" x="0" dy="1em" xml:space="preserve">Client</tspan></text></g></g></g></g></g></svg>