<svg aria-roledescription="flowchart-v2" role="graphics-document document" viewBox="-8 -8 1110.078125 830.875" style="max-width: 1110.08px; background-color: white;" xmlns:xlink="http://www.w3.org/1999/xlink" xmlns="http://www.w3.org/2000/svg" width="100%" id="my-svg"><style>#my-svg{font-family:"trebuchet ms",verdana,arial,sans-serif;font-size:16px;fill:#333;}#my-svg .error-icon{fill:#552222;}#my-svg .error-text{fill:#552222;stroke:#552222;}#my-svg .edge-thickness-normal{stroke-width:2px;}#my-svg .edge-thickness-thick{stroke-width:3.5px;}#my-svg .edge-pattern-solid{stroke-dasharray:0;}#my-svg .edge-pattern-dashed{stroke-dasharray:3;}#my-svg .edge-pattern-dotted{stroke-dasharray:2;}#my-svg .marker{fill:#333333;stroke:#333333;}#my-svg .marker.cross{stroke:#333333;}#my-svg svg{font-family:"trebuchet ms",verdana,arial,sans-serif;font-size:16px;}#my-svg .label{font-family:"trebuchet ms",verdana,arial,sans-serif;color:#333;}#my-svg .cluster-label text{fill:#333;}#my-svg .cluster-label span,#my-svg p{color:#333;}#my-svg .label text,#my-svg span,#my-svg p{fill:#333;color:#333;}#my-svg .node rect,#my-svg .node circle,#my-svg .node ellipse,#my-svg .node polygon,#my-svg .node path{fill:#ECECFF;stroke:#9370DB;stroke-width:1px;}#my-svg .flowchart-label text{text-anchor:middle;}#my-svg .node .label{text-align:center;}#my-svg .node.clickable{cursor:pointer;}#my-svg .arrowheadPath{fill:#333333;}#my-svg .edgePath .path{stroke:#333333;stroke-width:2.0px;}#my-svg .flowchart-link{stroke:#333333;fill:none;}#my-svg .edgeLabel{background-color:#e8e8e8;text-align:center;}#my-svg .edgeLabel rect{opacity:0.5;background-color:#e8e8e8;fill:#e8e8e8;}#my-svg .labelBkg{background-color:rgba(232, 232, 232, 0.5);}#my-svg .cluster rect{fill:#ffffde;stroke:#aaaa33;stroke-width:1px;}#my-svg .cluster text{fill:#333;}#my-svg .cluster span,#my-svg p{color:#333;}#my-svg div.mermaidTooltip{position:absolute;text-align:center;max-width:200px;padding:2px;font-family:"trebuchet ms",verdana,arial,sans-serif;font-size:12px;background:hsl(80, 100%, 96.2745098039%);border:1px solid #aaaa33;border-radius:2px;pointer-events:none;z-index:100;}#my-svg .flowchartTitleText{text-anchor:middle;font-size:18px;fill:#333;}#my-svg :root{--mermaid-font-family:"trebuchet ms",verdana,arial,sans-serif;}</style><g><marker orient="auto" markerHeight="12" markerWidth="12" markerUnits="userSpaceOnUse" refY="5" refX="6" viewBox="0 0 10 10" class="marker flowchart" id="my-svg_flowchart-pointEnd"><path style="stroke-width: 1; stroke-dasharray: 1, 0;" class="arrowMarkerPath" d="M 0 0 L 10 5 L 0 10 z"/></marker><marker orient="auto" markerHeight="12" markerWidth="12" markerUnits="userSpaceOnUse" refY="5" refX="4.5" viewBox="0 0 10 10" class="marker flowchart" id="my-svg_flowchart-pointStart"><path style="stroke-width: 1; stroke-dasharray: 1, 0;" class="arrowMarkerPath" d="M 0 5 L 10 10 L 10 0 z"/></marker><marker orient="auto" markerHeight="11" markerWidth="11" markerUnits="userSpaceOnUse" refY="5" refX="11" viewBox="0 0 10 10" class="marker flowchart" id="my-svg_flowchart-circleEnd"><circle style="stroke-width: 1; stroke-dasharray: 1, 0;" class="arrowMarkerPath" r="5" cy="5" cx="5"/></marker><marker orient="auto" markerHeight="11" markerWidth="11" markerUnits="userSpaceOnUse" refY="5" refX="-1" viewBox="0 0 10 10" class="marker flowchart" id="my-svg_flowchart-circleStart"><circle style="stroke-width: 1; stroke-dasharray: 1, 0;" class="arrowMarkerPath" r="5" cy="5" cx="5"/></marker><marker orient="auto" markerHeight="11" markerWidth="11" markerUnits="userSpaceOnUse" refY="5.2" refX="12" viewBox="0 0 11 11" class="marker cross flowchart" id="my-svg_flowchart-crossEnd"><path style="stroke-width: 2; stroke-dasharray: 1, 0;" class="arrowMarkerPath" d="M 1,1 l 9,9 M 10,1 l -9,9"/></marker><marker orient="auto" markerHeight="11" markerWidth="11" markerUnits="userSpaceOnUse" refY="5.2" refX="-1" viewBox="0 0 11 11" class="marker cross flowchart" id="my-svg_flowchart-crossStart"><path style="stroke-width: 2; stroke-dasharray: 1, 0;" class="arrowMarkerPath" d="M 1,1 l 9,9 M 10,1 l -9,9"/></marker><g class="root"><g class="clusters"><g id="upload" class="cluster default flowchart-label"><rect height="106.5" width="347.890625" y="0" x="332.7109375" ry="0" rx="0" style=""/><g transform="translate(506.65625, 0)" class="cluster-label"><text style=""><tspan class="row" x="0" dy="1em" xml:space="preserve">upload</tspan></text></g></g><g id="AWS" class="cluster default flowchart-label"><rect height="566.375" width="1094.078125" y="126.5" x="0" ry="0" rx="0" style=""/><g transform="translate(547.0390625, 126.5)" class="cluster-label"><text style=""><tspan class="row" x="0" dy="1em" xml:space="preserve">AWS</tspan></text></g></g><g id="namecheap" class="cluster default flowchart-label"><rect height="102" width="347.890625" y="712.875" x="332.7109375" ry="0" rx="0" style=""/><g transform="translate(506.65625, 712.875)" class="cluster-label"><text style=""><tspan class="row" x="0" dy="1em" xml:space="preserve">namecheap</tspan></text></g></g><g id="global" class="cluster default flowchart-label"><rect height="526.375" width="1044.078125" y="146.5" x="25" ry="0" rx="0" style=""/><g transform="translate(547.0390625, 146.5)" class="cluster-label"><text style=""><tspan class="row" x="0" dy="1em" xml:space="preserve">global</tspan></text></g></g><g id="eu-west-2" class="cluster default flowchart-label"><rect height="151" width="686.3671875" y="330.5" x="357.7109375" ry="0" rx="0" style=""/><g transform="translate(700.89453125, 330.5)" class="cluster-label"><text style=""><tspan class="row" x="0" dy="1em" xml:space="preserve">eu-west-2</tspan></text></g></g><g id="acl-public-read" class="cluster default flowchart-label"><rect height="111" width="288.4765625" y="350.5" x="730.6015625" ry="0" rx="0" style=""/><g transform="translate(874.83984375, 350.5)" class="cluster-label"><text style=""><tspan class="row" x="0" dy="1em" xml:space="preserve">acl-public-read</tspan></text></g></g></g><g class="edgePaths"><path marker-end="url(#my-svg_flowchart-pointEnd)" marker-start="url(#my-svg_flowchart-pointStart)" style="fill:none;" class="edge-thickness-normal edge-pattern-solid flowchart-link LS-Client LE-Site" id="L-Client-Site-0" d="M276.221875,763.875L281.4700520833333,763.875C286.7182291666667,763.875,297.21458333333334,763.875,306.6294270833333,763.875C316.0442708333333,763.875,324.3776041666667,763.875,332.7109375,763.875C341.0442708333333,763.875,349.3776041666667,763.875,370.4890625,763.875C391.60052083333335,763.875,425.4901041666667,763.875,442.4348958333333,763.875L459.3796875,763.875"/><path marker-end="url(#my-svg_flowchart-pointEnd)" style="fill:none;" class="edge-thickness-normal edge-pattern-solid flowchart-link LS-Site LE-R53" id="L-Site-R53-0" d="M508.14225932711526,747.875L483.07037235592935,711.453125C457.99848538474345,675.03125,407.85471144237175,602.1875,378.6161578045192,565.765625C349.3776041666667,529.34375,341.0442708333333,529.34375,332.7109375,529.34375C324.3776041666667,529.34375,316.0442708333333,529.34375,305.3764828082215,534.1275129557366C294.7086947831097,538.9112759114732,281.7064520662194,548.4788018229465,275.2053307077743,553.2625647786831L268.7042093493291,558.0463277344197"/><path marker-end="url(#my-svg_flowchart-pointEnd)" style="fill:none;" class="edge-thickness-normal edge-pattern-solid flowchart-link LS-R53 LE-Site" id="L-R53-Site-0" d="M264.4353644472567,593.1875L271.64795995604726,598.4947916666666C278.8605554648378,603.8020833333334,293.2857464824189,614.4166666666666,304.6650086578761,619.7239583333334C316.0442708333333,625.03125,324.3776041666667,625.03125,332.7109375,625.03125C341.0442708333333,625.03125,349.3776041666667,625.03125,376.6813365158442,644.9292384495322C403.9850688650218,664.8272268990645,450.25920023004363,704.623203798129,473.3962659125545,724.5211922476611L496.53333159506536,744.4191806971934"/><path marker-end="url(#my-svg_flowchart-pointEnd)" style="fill:none;" class="edge-thickness-normal edge-pattern-solid flowchart-link LS-Cert LE-R53" id="L-Cert-R53-0" d="M152.671875,577.1875L156.83854166666666,577.1875C161.00520833333334,577.1875,169.33854166666666,577.1875,176.78854166666667,577.1875C184.2385416666667,577.1875,190.80520833333333,577.1875,194.08854166666666,577.1875L197.371875,577.1875"/><path marker-end="url(#my-svg_flowchart-pointEnd)" marker-start="url(#my-svg_flowchart-pointStart)" style="fill:none;" class="edge-thickness-normal edge-pattern-solid flowchart-link LS-R53 LE-DNS" id="L-R53-DNS-0" d="M288.0109375,577.1875L291.2942708333333,577.1875C294.5776041666667,577.1875,301.14427083333334,577.1875,308.5942708333333,577.1875C316.0442708333333,577.1875,324.3776041666667,577.1875,332.7109375,577.1875C341.0442708333333,577.1875,349.3776041666667,577.1875,369.5372503521903,577.26647158315C389.69689653771394,577.3454431662999,421.6828555754278,577.5033863325999,437.6758350942848,577.5823579157499L453.66881461314176,577.6613294988998"/><path marker-end="url(#my-svg_flowchart-pointEnd)" marker-start="url(#my-svg_flowchart-pointStart)" style="fill:none;" class="edge-thickness-normal edge-pattern-solid flowchart-link LS-DNS LE-Cache" id="L-DNS-Cache-0" d="M585.6436840915145,577.6610684733222L601.4699971595954,577.5821403944352C617.2963102276764,577.5032123155481,648.9489363638381,577.3453561577741,668.9419160985857,577.2664280788871C688.9348958333334,577.1875,697.2682291666666,577.1875,705.6015625,577.1875C713.9348958333334,577.1875,722.2682291666666,577.1875,744.4786458333333,577.1875C766.6890625,577.1875,802.7765625000001,577.1875,820.8203125,577.1875L838.8640625,577.1875"/><path marker-end="url(#my-svg_flowchart-pointEnd)" marker-start="url(#my-svg_flowchart-pointStart)" style="fill:none;" class="edge-thickness-normal edge-pattern-solid flowchart-link LS-DNS LE-S3" id="L-DNS-S3-0" d="M556.0063749618964,545.8695322378245L576.7722395515804,527.5579435315204C597.5381041412643,509.2463548252163,639.0698333206321,472.62317741260813,664.0023645769828,454.31158870630406C688.9348958333334,436,697.2682291666666,436,705.6015625,436C713.9348958333334,436,722.2682291666666,436,738.9680461907886,433.78425442021756C755.6678632149105,431.5685088404351,780.734163929821,427.1370176808701,793.2673142872762,424.92127210108765L805.8004646447314,422.70552652130516"/><path marker-end="url(#my-svg_flowchart-pointEnd)" style="fill:none;" class="edge-thickness-normal edge-pattern-solid flowchart-link LS-S3AllActions LE-S3" id="L-S3AllActions-S3-0" d="M655.6015625,410.5L659.7682291666666,410.5C663.9348958333334,410.5,672.2682291666666,410.5,680.6015625,410.5C688.9348958333334,410.5,697.2682291666666,410.5,705.6015625,410.5C713.9348958333334,410.5,722.2682291666666,410.5,738.9545572916667,410.5C755.6408854166666,410.5,780.6802083333333,410.5,793.1998697916666,410.5L805.71953125,410.5"/><path marker-end="url(#my-svg_flowchart-pointEnd)" style="fill:none;" class="edge-thickness-normal edge-pattern-solid flowchart-link LS-Actions LE-S3" id="L-Actions-S3-0" d="M579.171875,61.26196467457053L596.0768229166666,62.88497056214211C612.9817708333334,64.50797644971368,646.7916666666666,67.75398822485684,667.86328125,122.62699411242842C688.9348958333334,177.5,697.2682291666666,284,705.6015625,337.25C713.9348958333334,390.5,722.2682291666666,390.5,738.9629284509191,392.2371300474486C755.6576277351714,393.97426009489715,780.7136929703429,397.44852018979435,793.2417255879287,399.18565023724295L805.7697582055144,400.9227802846915"/><path marker-end="url(#my-svg_flowchart-pointEnd)" marker-start="url(#my-svg_flowchart-pointStart)" style="fill:none;" class="edge-thickness-normal edge-pattern-solid flowchart-link LS-Actions LE-Uploader" id="L-Actions-Uploader-0" d="M584.4617371113225,51.45494684236667L600.4850413427688,50.462455701972225C616.508345574215,49.469964561577775,648.5549540371074,47.48498228078889,668.7449249352204,71.82582447372778C688.9348958333334,96.16666666666667,697.2682291666666,146.83333333333334,705.6015625,172.16666666666666C713.9348958333334,197.5,722.2682291666666,197.5,729.7182291666667,197.5C737.1682291666666,197.5,743.7348958333333,197.5,747.0182291666666,197.5L750.3015625,197.5"/></g><g class="edgeLabels"><g class="edgeLabel"><g transform="translate(0, 0)" class="label"><rect height="0" width="0" ry="0" rx="0"/><text style=""><tspan class="row" x="0" dy="1em" xml:space="preserve"/></text></g></g><g class="edgeLabel"><g transform="translate(0, 0)" class="label"><rect height="0" width="0" ry="0" rx="0"/><text style=""><tspan class="row" x="0" dy="1em" xml:space="preserve"/></text></g></g><g class="edgeLabel"><g transform="translate(0, 0)" class="label"><rect height="0" width="0" ry="0" rx="0"/><text style=""><tspan class="row" x="0" dy="1em" xml:space="preserve"/></text></g></g><g class="edgeLabel"><g transform="translate(0, 0)" class="label"><rect height="0" width="0" ry="0" rx="0"/><text style=""><tspan class="row" x="0" dy="1em" xml:space="preserve"/></text></g></g><g class="edgeLabel"><g transform="translate(0, 0)" class="label"><rect height="0" width="0" ry="0" rx="0"/><text style=""><tspan class="row" x="0" dy="1em" xml:space="preserve"/></text></g></g><g class="edgeLabel"><g transform="translate(0, 0)" class="label"><rect height="0" width="0" ry="0" rx="0"/><text style=""><tspan class="row" x="0" dy="1em" xml:space="preserve"/></text></g></g><g class="edgeLabel"><g transform="translate(0, 0)" class="label"><rect height="0" width="0" ry="0" rx="0"/><text style=""><tspan class="row" x="0" dy="1em" xml:space="preserve"/></text></g></g><g class="edgeLabel"><g transform="translate(0, 0)" class="label"><rect height="0" width="0" ry="0" rx="0"/><text style=""><tspan class="row" x="0" dy="1em" xml:space="preserve"/></text></g></g><g class="edgeLabel"><g transform="translate(0, 0)" class="label"><rect height="0" width="0" ry="0" rx="0"/><text style=""><tspan class="row" x="0" dy="1em" xml:space="preserve"/></text></g></g><g class="edgeLabel"><g transform="translate(0, 0)" class="label"><rect height="0" width="0" ry="0" rx="0"/><text style=""><tspan class="row" x="0" dy="1em" xml:space="preserve"/></text></g></g></g><g class="nodes"><g transform="translate(519.15625, 55.5)" id="flowchart-Actions-24" class="node default default flowchart-label"><rect height="32" width="120.03125" y="-16" x="-60.015625" ry="0" rx="0" style="" class="basic label-container"/><g transform="translate(0, -8.5)" style="" class="label"><rect/><text style=""><tspan class="row" x="0" dy="1em" xml:space="preserve">CI/CD Pipeline</tspan></text></g></g><g transform="translate(874.83984375, 197.5)" id="flowchart-Uploader-7" class="node default default flowchart-label"><rect height="32" width="238.4765625" y="-16" x="-119.23828125" ry="0" rx="0" style="" class="basic label-container"/><g transform="translate(0, -8.5)" style="" class="label"><rect/><text style=""><tspan class="row" x="0" dy="1em" xml:space="preserve">iam upload sherlihy.com bucket</tspan></text></g></g><g transform="translate(874.83984375, 279.5)" id="flowchart-Admin-8" class="node default default flowchart-label"><rect height="32" width="181.875" y="-16" x="-90.9375" ry="0" rx="0" style="" class="basic label-container"/><g transform="translate(0, -8.5)" style="" class="label"><rect/><text style=""><tspan class="row" x="0" dy="1em" xml:space="preserve">iam admin sherlihy.com</tspan></text></g></g><g transform="translate(519.15625, 577.1875)" id="flowchart-DNS-9" class="node default default flowchart-label"><polygon style="" transform="translate(-60.6875,60.6875)" class="label-container" points="60.6875,0 121.375,-60.6875 60.6875,-121.375 0,-60.6875"/><g transform="translate(0, -8.5)" style="" class="label"><rect/><text style=""><tspan class="row" x="0" dy="1em" xml:space="preserve">Cloudfront</tspan></text></g></g><g transform="translate(242.69140625, 577.1875)" id="flowchart-R53-4" class="node default default flowchart-label"><rect height="32" width="80.0390625" y="-16" x="-40.01953125" ry="0" rx="0" style="" class="basic label-container"/><g transform="translate(0, -8.5)" style="" class="label"><rect/><text style=""><tspan class="row" x="0" dy="1em" xml:space="preserve">Route 53</tspan></text></g></g><g transform="translate(101.3359375, 577.1875)" id="flowchart-Cert-11" class="node default default flowchart-label"><rect height="32" width="102.671875" y="-16" x="-51.3359375" ry="0" rx="0" style="" class="basic label-container"/><g transform="translate(0, -8.5)" style="" class="label"><rect/><text style=""><tspan class="row" x="0" dy="1em" xml:space="preserve">HTTPS Cert</tspan></text></g></g><g transform="translate(874.83984375, 577.1875)" id="flowchart-Cache-17" class="node default default flowchart-label"><rect height="32" width="61.3515625" y="-16" x="-30.67578125" ry="0" rx="0" style="" class="basic label-container"/><g transform="translate(0, -8.5)" style="" class="label"><rect/><text style=""><tspan class="row" x="0" dy="1em" xml:space="preserve">Cache</tspan></text></g></g><g transform="translate(519.15625, 410.5)" id="flowchart-S3AllActions-20" class="node default default flowchart-label"><rect height="32" width="272.890625" y="-16" x="-136.4453125" ry="0" rx="0" style="" class="basic label-container"/><g transform="translate(0, -8.5)" style="" class="label"><rect/><text style=""><tspan class="row" x="0" dy="1em" xml:space="preserve">resource policy - allow all S3 actions</tspan></text></g></g><g transform="translate(874.83984375, 410.5)" id="flowchart-S3-19" class="node default default flowchart-label"><rect height="32" width="127.640625" y="-16" x="-63.8203125" ry="0" rx="0" style="" class="basic label-container"/><g transform="translate(0, -8.5)" style="" class="label"><rect/><text style=""><tspan class="row" x="0" dy="1em" xml:space="preserve">S3 sherlihy.com</tspan></text></g></g><g transform="translate(519.15625, 763.875)" id="flowchart-Site-1" class="node default default flowchart-label"><rect height="32" width="108.953125" y="-16" x="-54.4765625" ry="0" rx="0" style="" class="basic label-container"/><g transform="translate(0, -8.5)" style="" class="label"><rect/><text style=""><tspan class="row" x="0" dy="1em" xml:space="preserve">SHerlihy.com</tspan></text></g></g><g transform="translate(242.69140625, 763.875)" id="flowchart-Client-0" class="node default default flowchart-label"><rect height="32" width="56.4609375" y="-16" x="-28.23046875" ry="0" rx="0" style="" class="basic label-container"/><g transform="translate(0, -8.5)" style="" class="label"><rect/><text style=""><tspan class="row" x="0" dy="1em" xml:space="preserve">Client</tspan></text></g></g></g></g></g></svg>